<?xml version="1.0" encoding="UTF-8" standalone="no"?>
<!DOCTYPE svg PUBLIC "-//W3C//DTD SVG 1.1//EN"
 "http://www.w3.org/Graphics/SVG/1.1/DTD/svg11.dtd">
<!-- Generated by graphviz version 2.38.0 (20140413.2041)
 -->
<!-- Title: %3 Pages: 1 -->
<svg width="99pt" height="332pt"
 viewBox="0.00 0.00 98.99 332.00" xmlns="http://www.w3.org/2000/svg" xmlns:xlink="http://www.w3.org/1999/xlink">
<g id="graph0" class="graph" transform="scale(1 1) rotate(0) translate(4 328)">
<title>%3</title>
<!-- n0 -->
<g id="node1" class="node"><title>n0</title>
<defs>
<linearGradient id="l_0" gradientUnits="userSpaceOnUse" x1="45.496" y1="-288" x2="45.496" y2="-324" >
<stop offset="0" style="stop-color:yellow;stop-opacity:1.;"/>
<stop offset="1" style="stop-color:white;stop-opacity:1.;"/>
</linearGradient>
</defs>
<ellipse fill="url(#l_0)" stroke="black" cx="45.496" cy="-306" rx="27" ry="18"/>
<text text-anchor="middle" x="45.496" y="-302.3" font-family="serif" font-size="14.00">pv</text>
</g>
<!-- n1 -->
<g id="node2" class="node"><title>n1</title>
<defs>
<linearGradient id="l_1" gradientUnits="userSpaceOnUse" x1="45.496" y1="-216" x2="45.496" y2="-252" >
<stop offset="0" style="stop-color:yellow;stop-opacity:1.;"/>
<stop offset="1" style="stop-color:white;stop-opacity:1.;"/>
</linearGradient>
</defs>
<ellipse fill="url(#l_1)" stroke="black" cx="45.496" cy="-234" rx="27.8951" ry="18"/>
<text text-anchor="middle" x="45.496" y="-230.3" font-family="serif" font-size="14.00">ja2l</text>
</g>
<!-- n0&#45;&gt;n1 -->
<g id="edge1" class="edge"><title>n0&#45;&gt;n1</title>
<path fill="none" stroke="black" d="M45.496,-287.697C45.496,-279.983 45.496,-270.712 45.496,-262.112"/>
<polygon fill="black" stroke="black" points="48.9961,-262.104 45.496,-252.104 41.9961,-262.104 48.9961,-262.104"/>
</g>
<!-- n2 -->
<g id="node3" class="node"><title>n2</title>
<defs>
<linearGradient id="l_2" gradientUnits="userSpaceOnUse" x1="45.496" y1="-144" x2="45.496" y2="-180" >
<stop offset="0" style="stop-color:yellow;stop-opacity:1.;"/>
<stop offset="1" style="stop-color:white;stop-opacity:1.;"/>
</linearGradient>
</defs>
<ellipse fill="url(#l_2)" stroke="black" cx="45.496" cy="-162" rx="27" ry="18"/>
<text text-anchor="middle" x="45.496" y="-158.3" font-family="serif" font-size="14.00">jq</text>
</g>
<!-- n1&#45;&gt;n2 -->
<g id="edge2" class="edge"><title>n1&#45;&gt;n2</title>
<path fill="none" stroke="black" d="M45.496,-215.697C45.496,-207.983 45.496,-198.712 45.496,-190.112"/>
<polygon fill="black" stroke="black" points="48.9961,-190.104 45.496,-180.104 41.9961,-190.104 48.9961,-190.104"/>
</g>
<!-- n3 -->
<g id="node4" class="node"><title>n3</title>
<defs>
<linearGradient id="l_3" gradientUnits="userSpaceOnUse" x1="45.496" y1="-72" x2="45.496" y2="-108" >
<stop offset="0" style="stop-color:yellow;stop-opacity:1.;"/>
<stop offset="1" style="stop-color:white;stop-opacity:1.;"/>
</linearGradient>
</defs>
<ellipse fill="url(#l_3)" stroke="black" cx="45.496" cy="-90" rx="29.795" ry="18"/>
<text text-anchor="middle" x="45.496" y="-86.3" font-family="serif" font-size="14.00">awk</text>
</g>
<!-- n2&#45;&gt;n3 -->
<g id="edge3" class="edge"><title>n2&#45;&gt;n3</title>
<path fill="none" stroke="black" d="M45.496,-143.697C45.496,-135.983 45.496,-126.712 45.496,-118.112"/>
<polygon fill="black" stroke="black" points="48.9961,-118.104 45.496,-108.104 41.9961,-118.104 48.9961,-118.104"/>
</g>
<!-- n4 -->
<g id="node5" class="node"><title>n4</title>
<defs>
<linearGradient id="l_4" gradientUnits="userSpaceOnUse" x1="45.496" y1="-1.77636e-14" x2="45.496" y2="-36" >
<stop offset="0" style="stop-color:yellow;stop-opacity:1.;"/>
<stop offset="1" style="stop-color:white;stop-opacity:1.;"/>
</linearGradient>
</defs>
<ellipse fill="url(#l_4)" stroke="black" cx="45.496" cy="-18" rx="45.4919" ry="18"/>
<text text-anchor="middle" x="45.496" y="-14.3" font-family="serif" font-size="14.00">sort &#45;nr</text>
</g>
<!-- n3&#45;&gt;n4 -->
<g id="edge4" class="edge"><title>n3&#45;&gt;n4</title>
<path fill="none" stroke="black" d="M45.496,-71.6966C45.496,-63.9827 45.496,-54.7125 45.496,-46.1124"/>
<polygon fill="black" stroke="black" points="48.9961,-46.1043 45.496,-36.1043 41.9961,-46.1044 48.9961,-46.1043"/>
</g>
</g>
</svg>
