<?xml version="1.0" encoding="UTF-8" standalone="no"?>
<!DOCTYPE svg PUBLIC "-//W3C//DTD SVG 1.1//EN"
 "http://www.w3.org/Graphics/SVG/1.1/DTD/svg11.dtd">
<!-- Generated by graphviz version 2.38.0 (20140413.2041)
 -->
<!-- Title: %3 Pages: 1 -->
<svg width="302pt" height="476pt"
 viewBox="0.00 0.00 301.79 476.00" xmlns="http://www.w3.org/2000/svg" xmlns:xlink="http://www.w3.org/1999/xlink">
<g id="graph0" class="graph" transform="scale(1 1) rotate(0) translate(4 472)">
<title>%3</title>
<!-- n0 -->
<g id="node1" class="node"><title>n0</title>
<defs>
<linearGradient id="l_0" gradientUnits="userSpaceOnUse" x1="145.897" y1="-432" x2="145.897" y2="-468" >
<stop offset="0" style="stop-color:yellow;stop-opacity:1.;"/>
<stop offset="1" style="stop-color:white;stop-opacity:1.;"/>
</linearGradient>
</defs>
<ellipse fill="url(#l_0)" stroke="black" cx="145.897" cy="-450" rx="27" ry="18"/>
<text text-anchor="middle" x="145.897" y="-446.3" font-family="serif" font-size="14.00">pv</text>
</g>
<!-- n1 -->
<g id="node2" class="node"><title>n1</title>
<defs>
<linearGradient id="l_1" gradientUnits="userSpaceOnUse" x1="145.897" y1="-360" x2="145.897" y2="-396" >
<stop offset="0" style="stop-color:yellow;stop-opacity:1.;"/>
<stop offset="1" style="stop-color:white;stop-opacity:1.;"/>
</linearGradient>
</defs>
<ellipse fill="url(#l_1)" stroke="black" cx="145.897" cy="-378" rx="27.8951" ry="18"/>
<text text-anchor="middle" x="145.897" y="-374.3" font-family="serif" font-size="14.00">ja2l</text>
</g>
<!-- n0&#45;&gt;n1 -->
<g id="edge1" class="edge"><title>n0&#45;&gt;n1</title>
<path fill="none" stroke="black" d="M145.897,-431.697C145.897,-423.983 145.897,-414.712 145.897,-406.112"/>
<polygon fill="black" stroke="black" points="149.397,-406.104 145.897,-396.104 142.397,-406.104 149.397,-406.104"/>
</g>
<!-- n2 -->
<g id="node3" class="node"><title>n2</title>
<defs>
<linearGradient id="l_2" gradientUnits="userSpaceOnUse" x1="32.8973" y1="-288" x2="32.8973" y2="-324" >
<stop offset="0" style="stop-color:yellow;stop-opacity:1.;"/>
<stop offset="1" style="stop-color:white;stop-opacity:1.;"/>
</linearGradient>
</defs>
<ellipse fill="url(#l_2)" stroke="black" cx="32.8973" cy="-306" rx="27" ry="18"/>
<text text-anchor="middle" x="32.8973" y="-302.3" font-family="serif" font-size="14.00">jq</text>
</g>
<!-- n1&#45;&gt;n2 -->
<g id="edge2" class="edge"><title>n1&#45;&gt;n2</title>
<path fill="none" stroke="black" d="M126.472,-364.967C108.333,-353.73 81.0649,-336.838 60.637,-324.184"/>
<polygon fill="black" stroke="black" points="62.4135,-321.167 52.0693,-318.876 58.7272,-327.118 62.4135,-321.167"/>
</g>
<!-- n7 -->
<g id="node4" class="node"><title>n7</title>
<defs>
<linearGradient id="l_3" gradientUnits="userSpaceOnUse" x1="108.897" y1="-288" x2="108.897" y2="-324" >
<stop offset="0" style="stop-color:yellow;stop-opacity:1.;"/>
<stop offset="1" style="stop-color:white;stop-opacity:1.;"/>
</linearGradient>
</defs>
<ellipse fill="url(#l_3)" stroke="black" cx="108.897" cy="-306" rx="27" ry="18"/>
<text text-anchor="middle" x="108.897" y="-302.3" font-family="serif" font-size="14.00">jq</text>
</g>
<!-- n1&#45;&gt;n7 -->
<g id="edge3" class="edge"><title>n1&#45;&gt;n7</title>
<path fill="none" stroke="black" d="M137.316,-360.765C132.833,-352.283 127.246,-341.714 122.216,-332.197"/>
<polygon fill="black" stroke="black" points="125.2,-330.353 117.432,-323.147 119.011,-333.624 125.2,-330.353"/>
</g>
<!-- n9 -->
<g id="node5" class="node"><title>n9</title>
<defs>
<linearGradient id="l_4" gradientUnits="userSpaceOnUse" x1="183.897" y1="-288" x2="183.897" y2="-324" >
<stop offset="0" style="stop-color:yellow;stop-opacity:1.;"/>
<stop offset="1" style="stop-color:white;stop-opacity:1.;"/>
</linearGradient>
</defs>
<ellipse fill="url(#l_4)" stroke="black" cx="183.897" cy="-306" rx="27" ry="18"/>
<text text-anchor="middle" x="183.897" y="-302.3" font-family="serif" font-size="14.00">jq</text>
</g>
<!-- n1&#45;&gt;n9 -->
<g id="edge4" class="edge"><title>n1&#45;&gt;n9</title>
<path fill="none" stroke="black" d="M154.711,-360.765C159.315,-352.283 165.052,-341.714 170.219,-332.197"/>
<polygon fill="black" stroke="black" points="173.437,-333.606 175.132,-323.147 167.285,-330.266 173.437,-333.606"/>
</g>
<!-- n11 -->
<g id="node6" class="node"><title>n11</title>
<defs>
<linearGradient id="l_5" gradientUnits="userSpaceOnUse" x1="261.897" y1="-288" x2="261.897" y2="-324" >
<stop offset="0" style="stop-color:yellow;stop-opacity:1.;"/>
<stop offset="1" style="stop-color:white;stop-opacity:1.;"/>
</linearGradient>
</defs>
<ellipse fill="url(#l_5)" stroke="black" cx="261.897" cy="-306" rx="27" ry="18"/>
<text text-anchor="middle" x="261.897" y="-302.3" font-family="serif" font-size="14.00">jq</text>
</g>
<!-- n1&#45;&gt;n11 -->
<g id="edge5" class="edge"><title>n1&#45;&gt;n11</title>
<path fill="none" stroke="black" d="M165.575,-365.125C184.269,-353.845 212.577,-336.763 233.673,-324.032"/>
<polygon fill="black" stroke="black" points="235.757,-326.863 242.51,-318.699 232.14,-320.869 235.757,-326.863"/>
</g>
<!-- n3 -->
<g id="node7" class="node"><title>n3</title>
<defs>
<linearGradient id="l_6" gradientUnits="userSpaceOnUse" x1="29.8973" y1="-216" x2="29.8973" y2="-252" >
<stop offset="0" style="stop-color:yellow;stop-opacity:1.;"/>
<stop offset="1" style="stop-color:white;stop-opacity:1.;"/>
</linearGradient>
</defs>
<ellipse fill="url(#l_6)" stroke="black" cx="29.8973" cy="-234" rx="29.795" ry="18"/>
<text text-anchor="middle" x="29.8973" y="-230.3" font-family="serif" font-size="14.00">awk</text>
</g>
<!-- n2&#45;&gt;n3 -->
<g id="edge6" class="edge"><title>n2&#45;&gt;n3</title>
<path fill="none" stroke="black" d="M32.1558,-287.697C31.8252,-279.983 31.4279,-270.712 31.0593,-262.112"/>
<polygon fill="black" stroke="black" points="34.5555,-261.945 30.6304,-252.104 27.5619,-262.245 34.5555,-261.945"/>
</g>
<!-- n8 -->
<g id="node11" class="node"><title>n8</title>
<defs>
<linearGradient id="l_7" gradientUnits="userSpaceOnUse" x1="107.897" y1="-216" x2="107.897" y2="-252" >
<stop offset="0" style="stop-color:yellow;stop-opacity:1.;"/>
<stop offset="1" style="stop-color:white;stop-opacity:1.;"/>
</linearGradient>
</defs>
<ellipse fill="url(#l_7)" stroke="black" cx="107.897" cy="-234" rx="29.795" ry="18"/>
<text text-anchor="middle" x="107.897" y="-230.3" font-family="serif" font-size="14.00">awk</text>
</g>
<!-- n7&#45;&gt;n8 -->
<g id="edge10" class="edge"><title>n7&#45;&gt;n8</title>
<path fill="none" stroke="black" d="M108.65,-287.697C108.54,-279.983 108.408,-270.712 108.285,-262.112"/>
<polygon fill="black" stroke="black" points="111.784,-262.053 108.142,-252.104 104.785,-262.153 111.784,-262.053"/>
</g>
<!-- n10 -->
<g id="node12" class="node"><title>n10</title>
<defs>
<linearGradient id="l_8" gradientUnits="userSpaceOnUse" x1="185.897" y1="-216" x2="185.897" y2="-252" >
<stop offset="0" style="stop-color:yellow;stop-opacity:1.;"/>
<stop offset="1" style="stop-color:white;stop-opacity:1.;"/>
</linearGradient>
</defs>
<ellipse fill="url(#l_8)" stroke="black" cx="185.897" cy="-234" rx="29.795" ry="18"/>
<text text-anchor="middle" x="185.897" y="-230.3" font-family="serif" font-size="14.00">awk</text>
</g>
<!-- n9&#45;&gt;n10 -->
<g id="edge12" class="edge"><title>n9&#45;&gt;n10</title>
<path fill="none" stroke="black" d="M184.392,-287.697C184.612,-279.983 184.877,-270.712 185.123,-262.112"/>
<polygon fill="black" stroke="black" points="188.622,-262.2 185.409,-252.104 181.624,-262 188.622,-262.2"/>
</g>
<!-- n12 -->
<g id="node13" class="node"><title>n12</title>
<defs>
<linearGradient id="l_9" gradientUnits="userSpaceOnUse" x1="263.897" y1="-216" x2="263.897" y2="-252" >
<stop offset="0" style="stop-color:yellow;stop-opacity:1.;"/>
<stop offset="1" style="stop-color:white;stop-opacity:1.;"/>
</linearGradient>
</defs>
<ellipse fill="url(#l_9)" stroke="black" cx="263.897" cy="-234" rx="29.795" ry="18"/>
<text text-anchor="middle" x="263.897" y="-230.3" font-family="serif" font-size="14.00">awk</text>
</g>
<!-- n11&#45;&gt;n12 -->
<g id="edge14" class="edge"><title>n11&#45;&gt;n12</title>
<path fill="none" stroke="black" d="M262.392,-287.697C262.612,-279.983 262.877,-270.712 263.123,-262.112"/>
<polygon fill="black" stroke="black" points="266.622,-262.2 263.409,-252.104 259.624,-262 266.622,-262.2"/>
</g>
<!-- n4 -->
<g id="node8" class="node"><title>n4</title>
<defs>
<linearGradient id="l_10" gradientUnits="userSpaceOnUse" x1="146.897" y1="-144" x2="146.897" y2="-180" >
<stop offset="0" style="stop-color:yellow;stop-opacity:1.;"/>
<stop offset="1" style="stop-color:white;stop-opacity:1.;"/>
</linearGradient>
</defs>
<ellipse fill="url(#l_10)" stroke="black" cx="146.897" cy="-162" rx="50.8918" ry="18"/>
<text text-anchor="middle" x="146.897" y="-158.3" font-family="serif" font-size="14.00">dgsh&#45;tee</text>
</g>
<!-- n3&#45;&gt;n4 -->
<g id="edge7" class="edge"><title>n3&#45;&gt;n4</title>
<path fill="none" stroke="black" d="M50.2772,-220.807C67.6148,-210.434 92.8647,-195.327 113.204,-183.158"/>
<polygon fill="black" stroke="black" points="115.085,-186.112 121.87,-177.974 111.491,-180.105 115.085,-186.112"/>
</g>
<!-- n5 -->
<g id="node9" class="node"><title>n5</title>
<defs>
<linearGradient id="l_11" gradientUnits="userSpaceOnUse" x1="146.897" y1="-72" x2="146.897" y2="-108" >
<stop offset="0" style="stop-color:yellow;stop-opacity:1.;"/>
<stop offset="1" style="stop-color:white;stop-opacity:1.;"/>
</linearGradient>
</defs>
<ellipse fill="url(#l_11)" stroke="black" cx="146.897" cy="-90" rx="29.795" ry="18"/>
<text text-anchor="middle" x="146.897" y="-86.3" font-family="serif" font-size="14.00">awk</text>
</g>
<!-- n4&#45;&gt;n5 -->
<g id="edge8" class="edge"><title>n4&#45;&gt;n5</title>
<path fill="none" stroke="black" d="M146.897,-143.697C146.897,-135.983 146.897,-126.712 146.897,-118.112"/>
<polygon fill="black" stroke="black" points="150.397,-118.104 146.897,-108.104 143.397,-118.104 150.397,-118.104"/>
</g>
<!-- n6 -->
<g id="node10" class="node"><title>n6</title>
<defs>
<linearGradient id="l_12" gradientUnits="userSpaceOnUse" x1="146.897" y1="-1.77636e-14" x2="146.897" y2="-36" >
<stop offset="0" style="stop-color:yellow;stop-opacity:1.;"/>
<stop offset="1" style="stop-color:white;stop-opacity:1.;"/>
</linearGradient>
</defs>
<ellipse fill="url(#l_12)" stroke="black" cx="146.897" cy="-18" rx="45.4919" ry="18"/>
<text text-anchor="middle" x="146.897" y="-14.3" font-family="serif" font-size="14.00">sort &#45;nr</text>
</g>
<!-- n5&#45;&gt;n6 -->
<g id="edge9" class="edge"><title>n5&#45;&gt;n6</title>
<path fill="none" stroke="black" d="M146.897,-71.6966C146.897,-63.9827 146.897,-54.7125 146.897,-46.1124"/>
<polygon fill="black" stroke="black" points="150.397,-46.1043 146.897,-36.1043 143.397,-46.1044 150.397,-46.1043"/>
</g>
<!-- n8&#45;&gt;n4 -->
<g id="edge11" class="edge"><title>n8&#45;&gt;n4</title>
<path fill="none" stroke="black" d="M116.943,-216.765C121.533,-208.525 127.221,-198.317 132.403,-189.016"/>
<polygon fill="black" stroke="black" points="135.547,-190.563 137.357,-180.124 129.432,-187.156 135.547,-190.563"/>
</g>
<!-- n10&#45;&gt;n4 -->
<g id="edge13" class="edge"><title>n10&#45;&gt;n4</title>
<path fill="none" stroke="black" d="M176.852,-216.765C172.262,-208.525 166.574,-198.317 161.392,-189.016"/>
<polygon fill="black" stroke="black" points="164.362,-187.156 156.438,-180.124 158.247,-190.563 164.362,-187.156"/>
</g>
<!-- n12&#45;&gt;n4 -->
<g id="edge15" class="edge"><title>n12&#45;&gt;n4</title>
<path fill="none" stroke="black" d="M243.518,-220.807C226.18,-210.434 200.93,-195.327 180.591,-183.158"/>
<polygon fill="black" stroke="black" points="182.303,-180.105 171.925,-177.974 178.709,-186.112 182.303,-180.105"/>
</g>
</g>
</svg>
